<?xml version="1.0" encoding="UTF-8"?>
<svg xmlns="http://www.w3.org/2000/svg" version="1.1" viewBox="0 0 490 447">
  <defs>
    <style>
      .cls-1 {
        fill: #ffbd59;
      }
    </style>
  </defs>
  <!-- Generator: Adobe Illustrator 28.6.0, SVG Export Plug-In . SVG Version: 1.2.0 Build 709)  -->
  <g>
    <g id="Layer_1">
      <rect class="cls-1" width="490" height="447"/>
      <path d="M307.1,361.8c-38.3,22.8-77.4,24.7-116.3,4.2-33.6-17.7-52.2-47.2-55.4-84.9-3.1-37-1-74.2-.9-111.4,0-26.2,0-52.3,0-78.5,0-4,.1-8,.7-12,1.2-8.6,7.3-13,16.8-12.5,7.4.3,13.2,6.1,13.7,13.9.3,5.1.5,10.3.5,15.5,0,30.8,0,61.6,0,92.5,0,2.3,0,4.5.5,6.9,5.3-5.6,10.4-11.1,16.3-15.7,23.7-18.5,50.6-24.7,80.2-21.3,44,5.1,82.7,39.5,90.8,88.3,6.7,40-3.3,75.7-33.5,104.3-4.1,3.9-8.6,7.3-13.7,10.6M229.5,187.5c-13.1,2.6-25,8-35.3,16.6-16.5,13.8-25.7,31.7-28,52.9-2.6,23.3,1.9,45.2,16.9,63.9,16.9,21.1,39,31,66,29.8,26-1.2,46.8-12.4,61.6-33.7,15.1-21.8,18.4-46.2,11.8-71.5-7.3-28-25.2-46.7-53.1-55.4-12.8-4-25.8-4.6-39.8-2.5Z"/>
    </g>
  </g>
</svg>